<svg width="159" height="102" viewBox="0 0 159 102" fill="none" xmlns="http://www.w3.org/2000/svg">
<g clip-path="url(#clip0_30_450)">
<path opacity="0.5" d="M41.1893 5.74076V96.2627C41.1893 99.4335 43.5206 102.003 46.4009 102.003H115.347C118.224 102.003 120.559 99.4335 120.559 96.2627V29.8672C120.559 28.2627 119.951 26.7346 118.881 25.6476L95.1366 1.52114C94.1742 0.541777 92.913 0 91.6031 0H46.4009C43.5241 0 41.1893 2.56997 41.1893 5.74076Z" fill="#2B6BFF"/>
<path d="M93.6392 0V22.126C93.6392 25.2968 95.9705 27.8668 98.8508 27.8668H120.559" fill="#0E7AFF"/>
<path opacity="0.3" d="M125.024 96.4919L133.89 98.6694C135.78 99.1348 137.681 98.0304 138.209 96.1585L158.861 23.2999C159.132 22.3413 159.01 21.3377 158.521 20.4729C158.031 19.6081 157.232 18.9865 156.269 18.726L114.614 7.44594C113.259 7.07781 111.863 7.84185 111.442 9.18588L111.091 10.3111L122.922 22.3309C124.398 23.8312 125.249 25.9462 125.249 28.1342V94.5262C125.249 95.2 125.173 95.8598 125.02 96.4954L125.024 96.4919Z" fill="#123395"/>
<path opacity="0.3" d="M35.7726 10.3424L2.73088 19.4206C1.76847 19.6811 0.969352 20.3028 0.479459 21.1675C-0.0104348 22.0323 -0.13204 23.0394 0.138965 23.9945L20.7909 96.8531C21.3225 98.725 23.2196 99.8329 25.1096 99.3641L36.061 96.4919C35.9116 95.8564 35.8317 95.1965 35.8317 94.5228V28.1308L35.7657 10.3424H35.7726Z" fill="#123395"/>
</g>
<circle cx="81" cy="59" r="19" fill="url(#paint0_linear_30_450)"/>
<path d="M81.0233 49.5959C81.8832 49.596 82.5798 50.2927 82.5799 51.1526V57.4534H88.8807C89.7405 57.4535 90.4372 58.1502 90.4373 59.01C90.4373 59.8699 89.7406 60.5665 88.8807 60.5667H82.5799V66.8674C82.5796 67.7272 81.8831 68.425 81.0233 68.425C80.1634 68.425 79.4669 67.7272 79.4666 66.8674V60.5667H73.1668C72.3068 60.5667 71.6082 59.87 71.6082 59.01C71.6083 58.1501 72.3069 57.4534 73.1668 57.4534H79.4666V51.1526C79.4667 50.2927 80.1633 49.5959 81.0233 49.5959Z" fill="white"/>
<defs>
<linearGradient id="paint0_linear_30_450" x1="64.5217" y1="63.6432" x2="96.029" y2="46.5283" gradientUnits="userSpaceOnUse">
<stop stop-color="#5755FF"/>
<stop offset="0.985577" stop-color="#1989FA"/>
</linearGradient>
<clipPath id="clip0_30_450">
<rect width="159" height="102" fill="white"/>
</clipPath>
</defs>
</svg>
