<svg width="24" height="19" viewBox="0 0 24 19" fill="none" xmlns="http://www.w3.org/2000/svg">
<path d="M20.2881 0C22.1395 9.80213e-05 23.6455 1.50632 23.6455 3.35742V14.6836C23.6455 16.5343 22.1395 18.0409 20.2881 18.041H8.96094C7.10929 18.0408 5.60352 16.5343 5.60352 14.6836V11.1299L5.80371 11.126C5.98767 10.8771 6.28281 10.7148 6.61133 10.7148C6.93764 10.7149 7.23074 10.8754 7.41504 11.1211H7.61719L7.61914 14.6836C7.61914 15.4239 8.22166 16.0254 8.96191 16.0254H20.2881C21.028 16.0253 21.6309 15.4238 21.6309 14.6836V3.35742C21.6309 2.6179 21.028 2.01572 20.2881 2.01562H8.96191C8.22166 2.01562 7.61914 2.61784 7.61914 3.35742V6.91113L7.42578 6.91406C7.2435 7.16478 6.94767 7.3252 6.61133 7.3252C6.28498 7.32511 5.9919 7.16473 5.80762 6.91895H5.60547L5.60352 3.35742C5.60352 1.50626 7.11007 0 8.96191 0H20.2881ZM13.4502 4.35156C13.7197 4.35156 13.9731 4.45624 14.1631 4.64648L17.8242 8.30762C17.9162 8.39928 17.989 8.50834 18.041 8.63086C18.0943 8.76305 18.1191 8.89066 18.1191 9.02051C18.1191 9.1504 18.0936 9.2782 18.0439 9.40137C17.9899 9.52986 17.9181 9.63851 17.8271 9.73145L14.1631 13.3945C13.9721 13.5848 13.7194 13.6895 13.4502 13.6895C13.1811 13.6894 12.9283 13.5845 12.7383 13.3945C12.3458 13.0004 12.3461 12.3612 12.7383 11.9688L14.6797 10.0273H1.36133C0.80632 10.0272 0.354678 9.5752 0.354492 9.02051C0.354492 8.46565 0.806206 8.01293 1.36133 8.0127H14.6797L12.7383 6.07129C12.3456 5.67852 12.3455 5.03924 12.7383 4.64648C12.9275 4.45662 13.1807 4.35157 13.4502 4.35156Z" fill="#FCFDFF"/>
</svg>
