<svg width="19" height="21" viewBox="0 0 19 21" fill="none" xmlns="http://www.w3.org/2000/svg">
<path d="M6.40527 17.8613C6.83502 17.6603 7.35355 17.8391 7.55859 18.2607C7.87232 18.9056 8.51742 19.3057 9.24121 19.3057C9.96481 19.3055 10.6092 18.9054 10.9229 18.2607C11.1304 17.8367 11.6464 17.6603 12.0762 17.8613H12.0713C12.5036 18.065 12.6845 18.5714 12.4795 18.9932C11.8842 20.2125 10.6117 21 9.23828 21C7.86482 21 6.59242 20.2125 5.99707 18.9932C5.79204 18.5689 5.97544 18.0625 6.40527 17.8613ZM9.23828 0C9.7669 4.53612e-06 10.2958 0.0554869 10.8096 0.166992C11.2762 0.268859 11.5698 0.719754 11.4688 1.17773C11.365 1.63589 10.9054 1.92458 10.4385 1.8252C10.0483 1.74282 9.64328 1.69922 9.23828 1.69922C6.16278 1.69922 3.66309 4.15286 3.66309 7.1709V13.6719C3.66309 13.7275 3.65779 13.7833 3.64551 13.8389C3.64057 13.8607 3.63338 13.883 3.62598 13.9072C3.61857 13.9363 3.61098 13.968 3.59863 13.9971C3.58633 14.0236 3.5714 14.0477 3.55664 14.0742C3.54429 14.096 3.53435 14.1208 3.51953 14.1426C3.48745 14.1886 3.45257 14.2298 3.41309 14.2686V14.2705L1.85938 15.7959H16.6191L15.0654 14.2705V14.2686C15.0259 14.2298 14.9911 14.1886 14.959 14.1426C14.9442 14.1208 14.9342 14.096 14.9219 14.0742C14.9071 14.0477 14.8922 14.0236 14.8799 13.9971C14.8676 13.968 14.8634 13.9363 14.8535 13.9072C14.8486 13.883 14.8379 13.8612 14.833 13.8369C14.8207 13.7813 14.8164 13.7256 14.8164 13.6699V7.85156C14.8165 7.3838 15.204 7.00295 15.6807 7.00293C16.1574 7.00293 16.5448 7.38379 16.5449 7.85156V13.3184L18 14.7461L17.998 14.748C18.4699 15.2086 18.6079 15.8974 18.3535 16.501C18.0991 17.1022 17.5034 17.4922 16.8389 17.4922H1.63965C0.975143 17.4922 0.379439 17.1046 0.125 16.501C-0.129344 15.8974 0.0121343 15.2086 0.481445 14.748L1.93652 13.3203V7.16797C1.93662 3.21672 5.21425 0 9.23828 0ZM14.9492 0.405273C16.3489 0.405273 17.4842 1.51816 17.4844 2.8916C17.4844 4.26522 16.349 5.37891 14.9492 5.37891C13.5496 5.37869 12.415 4.26508 12.415 2.8916C12.4152 1.5183 13.5498 0.405492 14.9492 0.405273Z" fill="#FCFDFF"/>
</svg>
