<svg width="30" height="30" viewBox="0 0 30 30" fill="none" xmlns="http://www.w3.org/2000/svg">
<path d="M15 0C23.2843 0 30 6.71573 30 15C30 23.2843 23.2843 30 15 30C6.71573 30 0 23.2843 0 15C1.93277e-07 6.71573 6.71573 1.9329e-07 15 0ZM15 2.85742C8.29368 2.85742 2.85742 8.29368 2.85742 15C2.85742 21.7063 8.29368 27.1426 15 27.1426C21.7063 27.1426 27.1426 21.7063 27.1426 15C27.1426 8.29368 21.7063 2.85742 15 2.85742ZM14.4648 8.35449C14.65 7.85944 15.35 7.85944 15.5352 8.35449L16.8613 11.9014C16.9416 12.1161 17.143 12.2625 17.3721 12.2725L21.1553 12.4375C21.683 12.4609 21.8989 13.1261 21.4854 13.4551L18.5225 15.8125C18.343 15.9552 18.2659 16.1921 18.3271 16.4131L19.3389 20.0615C19.4801 20.5708 18.9144 20.982 18.4736 20.6904L15.3154 18.6006C15.1243 18.4742 14.8757 18.4742 14.6846 18.6006L11.5273 20.6904C11.0866 20.9821 10.5199 20.5708 10.6611 20.0615L11.6729 16.4131C11.7341 16.1921 11.657 15.9552 11.4775 15.8125L8.51465 13.4551C8.10114 13.1261 8.31701 12.4609 8.84473 12.4375L12.6279 12.2725C12.857 12.2625 13.0584 12.1161 13.1387 11.9014L14.4648 8.35449Z" fill="url(#paint0_linear_30_451)"/>
<defs>
<linearGradient id="paint0_linear_30_451" x1="1.99078" y1="18.6657" x2="26.865" y2="5.15395" gradientUnits="userSpaceOnUse">
<stop stop-color="#5755FF"/>
<stop offset="1" stop-color="#248AFF"/>
</linearGradient>
</defs>
</svg>
