<svg width="174" height="48" viewBox="0 0 174 48" fill="none" xmlns="http://www.w3.org/2000/svg">
<path d="M163.595 32.7197L169.027 20.2021H174L165.011 39.6953C163.397 43.1483 162.244 43.9121 158.984 43.9121H154.836V39.9609H157.733C159.215 39.9609 159.676 39.6953 160.434 38.3008L160.993 37.2051L153.321 20.2021H158.293L163.595 32.7197ZM125.095 20.0029C130.693 20.0029 134.578 23.6223 134.578 28.7354C134.578 33.8484 130.693 37.4678 125.095 37.4678C122.395 37.4678 120.122 36.6376 118.641 35.0771V43.9082H113.998V20.2021H118.246L118.575 22.3604C120.057 20.8664 122.296 20.0029 125.095 20.0029ZM144.822 20.0068C150.552 20.0069 153.449 22.2309 153.449 26.5469V31.9922C153.449 32.955 153.812 33.3203 154.8 33.3203H155.523V37.2715H153.087C150.947 37.2714 149.465 36.4081 149.465 34.582V34.5488C148.049 36.5409 145.645 37.4707 142.55 37.4707C137.874 37.4706 135.174 35.5779 135.174 32.2246C135.174 28.7053 138.006 26.7793 143.538 26.7793H148.84V26.2812C148.84 24.3558 147.39 23.4268 144.525 23.4268C142.023 23.4268 140.674 24.1235 140.278 25.4844H135.701C136.031 22.0981 139.554 20.0068 144.822 20.0068ZM80.7998 20.0029C87.0561 20.003 91.2051 23.5227 91.2051 28.7354C91.205 33.9479 87.0231 37.4677 80.7998 37.4678C74.5764 37.4678 70.3614 33.9812 70.3613 28.7354C70.3613 23.4894 74.5434 20.0029 80.7998 20.0029ZM102.239 20.0029C108.496 20.0029 112.645 23.5227 112.645 28.7354C112.644 33.948 108.463 37.4678 102.239 37.4678C96.0158 37.4678 91.8008 33.9812 91.8008 28.7354C91.8008 23.4894 95.9829 20.0029 102.239 20.0029ZM52.7412 24.9834L64.1348 14.0264H70.918L60.71 23.4893L71.6748 37.2686H65.4521L57.0547 26.876L52.7412 30.8936V37.2686H47.8018V14.0264H52.7412V24.9834ZM143.439 29.9004C140.97 29.9004 139.85 30.5979 139.85 31.9922C139.85 33.3866 141.035 34.0839 143.373 34.084C146.666 34.084 148.84 32.5566 148.84 30.2324V29.9004H143.439ZM80.8027 23.8213C77.3124 23.8213 75.1064 25.714 75.1064 28.7354C75.1065 31.7566 77.2795 33.6494 80.8027 33.6494C84.326 33.6494 86.499 31.7567 86.499 28.7354C86.499 25.714 84.2931 23.8213 80.8027 23.8213ZM102.242 23.8213C98.752 23.8214 96.5459 25.7141 96.5459 28.7354C96.5459 31.7566 98.7191 33.6493 102.242 33.6494C105.765 33.6494 107.939 31.7567 107.939 28.7354C107.939 25.714 105.733 23.8213 102.242 23.8213ZM124.176 23.8213C120.653 23.8214 118.578 25.6809 118.578 28.7354C118.578 31.7898 120.686 33.6493 124.176 33.6494C127.666 33.6494 129.84 31.7899 129.84 28.7354C129.84 25.6808 127.699 23.8213 124.176 23.8213Z" fill="white"/>
<path d="M32.6419 11.5576C32.6254 11.5443 32.6089 11.5277 32.5892 11.5144L18.4728 0.458186C18.0941 0.162689 17.6233 0 17.1458 0C16.6683 0 16.1975 0.162689 15.8188 0.458186L1.6991 11.5144C1.6991 11.5144 1.66288 11.5443 1.64312 11.5609C0.602589 12.4308 0 13.719 0 15.0869V32.913C0 34.281 0.602589 35.5692 1.64642 36.4424C1.66288 36.459 1.68264 36.4723 1.6991 36.4856L15.8188 47.5418C16.1975 47.8373 16.6683 48 17.1458 48C17.6233 48 18.0941 47.8373 18.4728 47.5418L32.5892 36.4856C32.6089 36.4723 32.6254 36.459 32.6452 36.4424C33.689 35.5692 34.2883 34.281 34.2883 32.913V15.0869C34.2883 13.719 33.689 12.4308 32.6419 11.5576ZM29.9615 32.913C29.9615 32.9761 29.9385 33.0326 29.8956 33.0724L17.1458 43.0596L4.39594 33.0724C4.34984 33.0326 4.32679 32.9761 4.32679 32.913V28.5337L6.8458 26.6279L15.799 33.7464C15.8813 33.8128 15.9735 33.8759 16.0855 33.939C16.1053 33.9489 16.1283 33.9622 16.1514 33.9755C16.2567 34.0286 16.3522 34.0718 16.4411 34.1017L16.4543 34.1083L16.4806 34.115C16.5597 34.1415 16.6486 34.1614 16.7474 34.1814C16.777 34.188 16.8066 34.1913 16.8363 34.198C16.9383 34.2112 17.0305 34.2179 17.1194 34.2212H17.1721C17.261 34.2179 17.3532 34.2112 17.4553 34.198C17.4817 34.1913 17.5113 34.188 17.5409 34.1814C17.6397 34.1614 17.7319 34.1415 17.8175 34.1116C17.8208 34.1116 17.834 34.1116 17.8472 34.1017C17.9394 34.0718 18.0349 34.0286 18.1402 33.9755C18.1633 33.9622 18.183 33.9489 18.2061 33.939C18.318 33.8759 18.4102 33.8128 18.4959 33.7431L27.4458 26.6279L29.9615 28.5337V32.913ZM10.4251 23.922L17.1458 18.8388L23.8632 23.922L17.1458 29.2642L10.4251 23.922ZM29.9615 23.082L18.4432 14.3698C18.4168 14.3465 18.3872 14.3299 18.3576 14.3133C18.2686 14.2569 18.2061 14.2171 18.1435 14.1839C18.0842 14.154 18.025 14.1274 17.9624 14.1009C17.8933 14.0743 17.8274 14.0477 17.7583 14.0278C17.6924 14.0079 17.6265 13.9913 17.5574 13.978C17.4882 13.9647 17.4224 13.9548 17.3532 13.9481C17.2841 13.9415 17.2149 13.9382 17.1458 13.9382C17.0766 13.9382 17.0042 13.9382 16.9351 13.9481C16.8692 13.9548 16.8033 13.9647 16.7375 13.978C16.6683 13.9913 16.5992 14.0079 16.5267 14.0278C16.4609 14.0477 16.395 14.0743 16.3325 14.1009C16.2666 14.1274 16.2073 14.154 16.1448 14.1872C16.0855 14.2171 16.0196 14.2569 15.9472 14.3067C15.9044 14.3299 15.8748 14.3465 15.8484 14.3698L4.32679 23.082V15.0869C4.32679 15.0272 4.34984 14.9707 4.39594 14.9276L17.1458 4.94376L29.8956 14.9276C29.9385 14.9674 29.9615 15.0272 29.9615 15.0869V23.082Z" fill="url(#paint0_linear_8_34)"/>
<defs>
<linearGradient id="paint0_linear_8_34" x1="2.27535" y1="29.8651" x2="34.2757" y2="17.448" gradientUnits="userSpaceOnUse">
<stop stop-color="#5755FF"/>
<stop offset="1" stop-color="#0037FF"/>
</linearGradient>
</defs>
</svg>
