<svg width="31" height="45" viewBox="0 0 31 45" fill="none" xmlns="http://www.w3.org/2000/svg">
<path d="M29.5115 10.8352C29.4966 10.8228 29.4817 10.8072 29.4638 10.7948L16.7012 0.42955C16.3589 0.152521 15.9332 0 15.5015 0C15.0698 0 14.6441 0.152521 14.3017 0.42955L1.53616 10.7948C1.53616 10.7948 1.50341 10.8228 1.48555 10.8383C0.5448 11.6539 0 12.8616 0 14.144V30.856C0 32.1384 0.5448 33.3461 1.48852 34.1648C1.50341 34.1803 1.52127 34.1928 1.53616 34.2052L14.3017 44.5704C14.6441 44.8475 15.0698 45 15.5015 45C15.9332 45 16.3589 44.8475 16.7012 44.5704L29.4638 34.2052C29.4817 34.1928 29.4966 34.1803 29.5145 34.1648C30.4582 33.3461 31 32.1384 31 30.856V14.144C31 12.8616 30.4582 11.6539 29.5115 10.8352ZM27.0882 30.856C27.0882 30.9151 27.0673 30.968 27.0286 31.0054L15.5015 40.3683L3.97436 31.0054C3.93268 30.968 3.91184 30.9151 3.91184 30.856V26.7504L6.18928 24.9637L14.2839 31.6373C14.3583 31.6995 14.4417 31.7587 14.5429 31.8178C14.5607 31.8271 14.5816 31.8396 14.6024 31.852C14.6977 31.9018 14.784 31.9423 14.8644 31.9703L14.8763 31.9766L14.9001 31.9828C14.9716 32.0077 15.052 32.0264 15.1413 32.045C15.1681 32.0513 15.1949 32.0544 15.2216 32.0606C15.3139 32.073 15.3973 32.0793 15.4777 32.0824H15.5253C15.6057 32.0793 15.689 32.073 15.7813 32.0606C15.8051 32.0544 15.8319 32.0513 15.8587 32.045C15.948 32.0264 16.0314 32.0077 16.1088 31.9797C16.1118 31.9797 16.1237 31.9797 16.1356 31.9703C16.219 31.9423 16.3053 31.9018 16.4006 31.852C16.4214 31.8396 16.4393 31.8271 16.4601 31.8178C16.5613 31.7587 16.6447 31.6995 16.7221 31.6342L24.8137 24.9637L27.0882 26.7504V30.856ZM9.42533 22.4269L15.5015 17.6613L21.5747 22.4269L15.5015 27.4352L9.42533 22.4269ZM27.0882 21.6393L16.6744 13.4717C16.6506 13.4499 16.6238 13.4343 16.597 13.4188C16.5167 13.3658 16.4601 13.3285 16.4035 13.2974C16.3499 13.2694 16.2964 13.2444 16.2398 13.2195C16.1773 13.1946 16.1177 13.1697 16.0552 13.1511C15.9957 13.1324 15.9361 13.1168 15.8736 13.1044C15.8111 13.0919 15.7516 13.0826 15.689 13.0764C15.6265 13.0701 15.564 13.067 15.5015 13.067C15.439 13.067 15.3735 13.067 15.311 13.0764C15.2514 13.0826 15.1919 13.0919 15.1323 13.1044C15.0698 13.1168 15.0073 13.1324 14.9418 13.1511C14.8823 13.1697 14.8227 13.1946 14.7662 13.2195C14.7066 13.2444 14.653 13.2694 14.5965 13.3005C14.5429 13.3285 14.4833 13.3658 14.4178 13.4125C14.3791 13.4343 14.3523 13.4499 14.3285 13.4717L3.91184 21.6393V14.144C3.91184 14.088 3.93268 14.0351 3.97436 13.9946L15.5015 4.63478L27.0286 13.9946C27.0673 14.032 27.0882 14.088 27.0882 14.144V21.6393Z" fill="url(#paint0_linear_30_456)"/>
<defs>
<linearGradient id="paint0_linear_30_456" x1="2.05714" y1="27.9985" x2="31.256" y2="17.0721" gradientUnits="userSpaceOnUse">
<stop stop-color="#5755FF"/>
<stop offset="1" stop-color="#0037FF"/>
</linearGradient>
</defs>
</svg>
